<svg xmlns="http://www.w3.org/2000/svg" viewBox="0 0 32 32">
  <path d="M16 3C11.042969 3 7 7.042969 7 12C7 13.40625 7.570313 15.019531 8.34375 16.78125C9.117188 18.542969 10.113281 20.414063 11.125 22.15625C13.148438 25.644531 15.1875 28.5625 15.1875 28.5625L16 29.75L16.8125 28.5625C16.8125 28.5625 18.851563 25.644531 20.875 22.15625C21.886719 20.414063 22.882813 18.542969 23.65625 16.78125C24.429688 15.019531 25 13.40625 25 12C25 7.042969 20.957031 3 16 3 Z M 16 5C19.878906 5 23 8.121094 23 12C23 12.800781 22.570313 14.316406 21.84375 15.96875C21.117188 17.621094 20.113281 19.453125 19.125 21.15625C17.554688 23.867188 16.578125 25.300781 16 26.15625C15.421875 25.300781 14.445313 23.867188 12.875 21.15625C11.886719 19.453125 10.882813 17.621094 10.15625 15.96875C9.429688 14.316406 9 12.800781 9 12C9 8.121094 12.121094 5 16 5 Z M 16 10C14.894531 10 14 10.894531 14 12C14 13.105469 14.894531 14 16 14C17.105469 14 18 13.105469 18 12C18 10.894531 17.105469 10 16 10Z" fill="#70C100" />
</svg>