<svg xmlns="http://www.w3.org/2000/svg" viewBox="0 0 100 100">
  <path d="M77.882812 21.021484C77.753281 21.011266 77.619531 21.026563 77.488281 21.070312L64.246094 25.466797C63.744094 25.633797 63.459703 26.161828 63.595703 26.673828C63.801703 27.444828 63.373094 28.243188 62.621094 28.492188C61.871094 28.740188 61.051906 28.357187 60.753906 27.617188C60.557906 27.127188 60.015719 26.873062 59.511719 27.039062L15.449219 41.669922C15.359219 41.699922 15.282031 41.749781 15.207031 41.800781L10.445312 42.484375C10.183312 42.522375 9.9461094 42.663 9.7871094 42.875C9.6291094 43.087 9.5616094 43.354188 9.5996094 43.617188L11.533203 57.091797C11.612203 57.634797 12.106203 58.014453 12.658203 57.939453C14.735203 57.656453 16.67075 59.115453 16.96875 61.189453C17.26775 63.263453 15.822047 65.207484 13.748047 65.521484C13.205047 65.604484 12.82825 66.108344 12.90625 66.652344L14.841797 80.126953C14.879797 80.389953 15.020422 80.625203 15.232422 80.783203C15.406422 80.913203 15.617031 80.984375 15.832031 80.984375C15.879031 80.984375 15.928562 80.981609 15.976562 80.974609L70.804688 73.101562C71.078688 73.061562 71.326375 72.909641 71.484375 72.681641C71.642375 72.453641 71.699625 72.171391 71.640625 71.900391L71.613281 71.808594C71.555281 71.409594 71.657438 71.012453 71.898438 70.689453C72.140438 70.366453 72.493578 70.156609 72.892578 70.099609C73.288578 70.041609 73.689719 70.142766 74.011719 70.384766C74.334719 70.626766 74.545656 70.980797 74.597656 71.341797C74.597656 71.362797 74.599563 71.450656 74.601562 71.472656C74.621562 71.749656 74.754703 72.006641 74.970703 72.181641C75.186703 72.356641 75.460188 72.432578 75.742188 72.392578L89.554688 70.408203C89.816688 70.370203 90.053891 70.231531 90.212891 70.019531C90.370891 69.807531 90.438391 69.540344 90.400391 69.277344L88.462891 55.779297C88.386891 55.253297 87.917766 54.878781 87.384766 54.925781C85.362766 55.092781 83.543813 53.673922 83.257812 51.669922C82.969813 49.666922 84.306734 47.785719 86.302734 47.386719C86.823734 47.282719 87.172656 46.789672 87.097656 46.263672L85.158203 32.765625C85.120203 32.502625 84.979578 32.265422 84.767578 32.107422C84.555578 31.948422 84.294391 31.882922 84.025391 31.919922L82.232422 32.177734L78.753906 21.703125C78.622656 21.309375 78.271406 21.052141 77.882812 21.021484 z M 77.171875 23.283203L80.220703 32.466797L70.212891 33.902344C69.689891 33.977344 69.316375 34.447609 69.359375 34.974609C69.425375 35.768609 68.862125 36.48075 68.078125 36.59375C67.298125 36.70975 66.558484 36.182391 66.396484 35.400391C66.290484 34.882391 65.812437 34.539328 65.273438 34.611328L26.121094 40.234375L59.373047 29.193359C60.262047 30.351359 61.814906 30.867625 63.253906 30.390625C64.696906 29.911625 65.629438 28.569375 65.648438 27.109375L77.171875 23.283203 z M 83.318359 34.039062L84.990234 45.685547C82.471234 46.632547 80.881438 49.218125 81.273438 51.953125C81.666438 54.688125 83.920516 56.723828 86.603516 56.923828L88.275391 68.568359L76.363281 70.279297C76.127281 69.688297 75.732937 69.17225 75.210938 68.78125C74.459937 68.21925 73.533422 67.984187 72.607422 68.117188C71.678422 68.250187 70.857922 68.736328 70.294922 69.486328C69.902922 70.008328 69.671375 70.615047 69.609375 71.248047L16.677734 78.849609L15.015625 67.263672C17.638625 66.389672 19.352266 63.725344 18.947266 60.902344C18.541266 58.079344 16.147766 56.00725 13.384766 55.90625L11.720703 44.320312L64.755859 36.705078C65.424859 38.002078 66.865328 38.787313 68.361328 38.570312C69.866328 38.354312 71.023781 37.197625 71.300781 35.765625L83.318359 34.039062 z M 68.390625 39.787109C68.117625 39.826109 67.925844 40.079516 67.964844 40.353516L68.107422 41.34375C68.143422 41.59375 68.357563 41.771484 68.601562 41.771484C68.624562 41.771484 68.647875 41.771578 68.671875 41.767578C68.944875 41.728578 69.136656 41.475172 69.097656 41.201172L68.955078 40.210938C68.915078 39.937937 68.655625 39.749109 68.390625 39.787109 z M 59.511719 41.720703L58.292969 41.894531C58.019969 41.934531 57.828187 42.187937 57.867188 42.460938C57.903188 42.709938 58.117328 42.890625 58.361328 42.890625C58.385328 42.890625 58.409594 42.888766 58.433594 42.884766L59.652344 42.710938C59.925344 42.670938 60.115172 42.417531 60.076172 42.144531C60.036172 41.869531 59.778719 41.680703 59.511719 41.720703 z M 56.767578 42.117188C56.672453 42.137188 56.584531 42.183906 56.519531 42.253906C56.419531 42.343906 56.371094 42.473516 56.371094 42.603516C56.371094 42.733516 56.420531 42.863125 56.519531 42.953125C56.609531 43.053125 56.741094 43.103516 56.871094 43.103516C56.931094 43.103516 57.001547 43.094453 57.060547 43.064453C57.121547 43.044453 57.170703 43.003125 57.220703 42.953125C57.310703 42.863125 57.369141 42.733516 57.369141 42.603516C57.369141 42.473516 57.309703 42.343906 57.220703 42.253906C57.180703 42.203906 57.120547 42.164531 57.060547 42.144531C56.966047 42.104531 56.862703 42.097187 56.767578 42.117188 z M 54.759766 42.402344L20.306641 47.349609C20.175641 47.368609 20.056563 47.438922 19.976562 47.544922C19.897562 47.650922 19.864812 47.785016 19.882812 47.916016L22.296875 64.724609C22.332875 64.973609 22.545063 65.154297 22.789062 65.154297C22.813063 65.153297 22.837328 65.152437 22.861328 65.148438C23.134328 65.108437 23.324156 64.855031 23.285156 64.582031L20.943359 48.267578L54.900391 43.392578C55.173391 43.352578 55.363219 43.099172 55.324219 42.826172C55.284219 42.552172 55.025766 42.362344 54.759766 42.402344 z M 68.988281 43.972656C68.715281 44.012656 68.525453 44.266062 68.564453 44.539062L68.871094 46.669922C68.907094 46.919922 69.121234 47.097656 69.365234 47.097656C69.389234 47.097656 69.4135 47.09775 69.4375 47.09375C69.7105 47.05375 69.900328 46.800344 69.861328 46.527344L69.554688 44.396484C69.514687 44.121484 69.251281 43.930656 68.988281 43.972656 z M 62.869141 45.220703C62.596141 45.260703 62.406312 45.514109 62.445312 45.787109L65.431641 66.578125L24.417969 72.46875L24.09375 70.21875C24.05375 69.94475 23.790344 69.755922 23.527344 69.794922C23.254344 69.834922 23.064516 70.086375 23.103516 70.359375L23.498047 73.105469C23.534047 73.354469 23.748188 73.533203 23.992188 73.533203C24.016188 73.533203 24.040453 73.533297 24.064453 73.529297L66.068359 67.498047C66.199359 67.479047 66.318438 67.408734 66.398438 67.302734C66.477437 67.196734 66.510188 67.062641 66.492188 66.931641L63.435547 45.644531C63.395547 45.370531 63.134141 45.181703 62.869141 45.220703 z M 69.753906 49.298828C69.480906 49.338828 69.291078 49.592234 69.330078 49.865234L69.636719 51.994141C69.672719 52.244141 69.886859 52.423828 70.130859 52.423828C70.154859 52.423828 70.176172 52.423922 70.201172 52.419922C70.474172 52.379922 70.665953 52.126516 70.626953 51.853516L70.320312 49.722656C70.280312 49.447656 70.020906 49.258828 69.753906 49.298828 z M 70.517578 54.625C70.244578 54.665 70.05475 54.918406 70.09375 55.191406L70.400391 57.320312C70.436391 57.570312 70.650531 57.75 70.894531 57.75C70.919531 57.75 70.942797 57.748141 70.966797 57.744141C71.239797 57.704141 71.429625 57.452687 71.390625 57.179688L71.083984 55.048828C71.043984 54.774828 70.782578 54.587 70.517578 54.625 z M 71.283203 59.951172C71.010203 59.991172 70.820375 60.244578 70.859375 60.517578L71.164062 62.646484C71.200063 62.896484 71.414203 63.076172 71.658203 63.076172C71.682203 63.076172 71.706469 63.074312 71.730469 63.070312C72.003469 63.030313 72.193297 62.778859 72.154297 62.505859L71.849609 60.375C71.809609 60.1 71.551203 59.910172 71.283203 59.951172 z M 72.048828 65.277344C71.775828 65.317344 71.584047 65.57075 71.623047 65.84375L71.767578 66.832031C71.803578 67.081031 72.017719 67.261719 72.261719 67.261719C72.285719 67.261719 72.308031 67.261812 72.332031 67.257812C72.605031 67.217812 72.796812 66.964406 72.757812 66.691406L72.613281 65.701172C72.573281 65.427172 72.314828 65.238344 72.048828 65.277344 z M 23.103516 66.828125C22.830516 66.867125 22.640687 67.120531 22.679688 67.394531L22.8125 68.322266C22.8485 68.571266 23.062641 68.751953 23.306641 68.751953C23.330641 68.750953 23.353906 68.748141 23.378906 68.744141C23.651906 68.705141 23.841734 68.453688 23.802734 68.179688L23.669922 67.251953C23.629922 66.977953 23.368516 66.784125 23.103516 66.828125 z" fill="#70C100" />
</svg>