<svg xmlns="http://www.w3.org/2000/svg" viewBox="0 0 64 64">
  <path d="M39 4C38.533 4 38.129391 4.3223437 38.025391 4.7773438L37.15625 8.59375C36.39025 8.82975 35.650359 9.1358125 34.943359 9.5078125L31.632812 7.4257812C31.238813 7.1797812 30.723578 7.2334531 30.392578 7.5644531L27.564453 10.392578C27.234453 10.722578 27.177781 11.237813 27.425781 11.632812L29.507812 14.943359C29.135813 15.650359 28.82975 16.39025 28.59375 17.15625L24.777344 18.025391C24.322344 18.129391 24 18.533 24 19L24 23C24 23.467 24.322344 23.870609 24.777344 23.974609L28.59375 24.84375C28.82975 25.60975 29.135813 26.349641 29.507812 27.056641L27.425781 30.367188C27.177781 30.761187 27.234453 31.277422 27.564453 31.607422L30.392578 34.435547C30.723578 34.765547 31.237813 34.820219 31.632812 34.574219L34.943359 32.492188C35.650359 32.864187 36.39025 33.17025 37.15625 33.40625L38.025391 37.222656C38.129391 37.677656 38.533 38 39 38L43 38C43.467 38 43.870609 37.677656 43.974609 37.222656L44.84375 33.40625C45.60975 33.17025 46.349641 32.864187 47.056641 32.492188L50.367188 34.574219C50.761188 34.820219 51.276422 34.765547 51.607422 34.435547L54.435547 31.607422C54.765547 31.277422 54.822219 30.762187 54.574219 30.367188L52.492188 27.056641C52.864188 26.349641 53.17025 25.60975 53.40625 24.84375L57.222656 23.974609C57.677656 23.870609 58 23.467 58 23L58 19C58 18.533 57.677656 18.129391 57.222656 18.025391L53.40625 17.15625C53.17025 16.39025 52.864187 15.650359 52.492188 14.943359L54.574219 11.632812C54.822219 11.238812 54.765547 10.722578 54.435547 10.392578L51.607422 7.5644531C51.276422 7.2334531 50.762188 7.1797812 50.367188 7.4257812L47.056641 9.5078125C46.349641 9.1358125 45.60975 8.82975 44.84375 8.59375L43.974609 4.7773438C43.870609 4.3223437 43.467 4 43 4L39 4 z M 39.798828 6L42.201172 6L43.025391 9.6152344C43.108391 9.9802344 43.389953 10.269281 43.751953 10.363281C44.747953 10.620281 45.699078 11.013203 46.580078 11.533203C46.901078 11.723203 47.304141 11.716578 47.619141 11.517578L50.757812 9.5449219L52.457031 11.242188L50.482422 14.380859C50.282422 14.696859 50.27875 15.099875 50.46875 15.421875C50.98875 16.302875 51.381672 17.254 51.638672 18.25C51.732672 18.613 52.019766 18.891609 52.384766 18.974609L56 19.798828L56 22.201172L52.384766 23.025391C52.019766 23.108391 51.730719 23.389953 51.636719 23.751953C51.379719 24.747953 50.986797 25.699078 50.466797 26.580078C50.276797 26.902078 50.283422 27.303141 50.482422 27.619141L52.455078 30.757812L50.757812 32.457031L47.619141 30.482422C47.303141 30.283422 46.898125 30.27875 46.578125 30.46875C45.697125 30.98875 44.746 31.381672 43.75 31.638672C43.387 31.732672 43.108391 32.019766 43.025391 32.384766L42.201172 36L39.798828 36L38.974609 32.384766C38.891609 32.019766 38.610047 31.730719 38.248047 31.636719C37.252047 31.379719 36.300922 30.986797 35.419922 30.466797C35.099922 30.276797 34.697859 30.285422 34.380859 30.482422L31.242188 32.455078L29.542969 30.757812L31.517578 27.619141C31.717578 27.303141 31.72125 26.900125 31.53125 26.578125C31.01125 25.697125 30.618328 24.746 30.361328 23.75C30.267328 23.387 29.980234 23.108391 29.615234 23.025391L26 22.201172L26 19.798828L29.615234 18.974609C29.980234 18.891609 30.269281 18.610047 30.363281 18.248047C30.620281 17.252047 31.013203 16.300922 31.533203 15.419922C31.723203 15.097922 31.716578 14.696859 31.517578 14.380859L29.544922 11.242188L31.242188 9.5429688L34.380859 11.517578C34.696859 11.717578 35.101875 11.72025 35.421875 11.53125C36.302875 11.01125 37.254 10.618328 38.25 10.361328C38.613 10.267328 38.891609 9.9802344 38.974609 9.6152344L39.798828 6 z M 41 12C36.037 12 32 16.038 32 21C32 25.962 36.037 30 41 30C45.963 30 50 25.962 50 21C50 20.633 49.975828 20.253141 49.923828 19.869141C49.852828 19.322141 49.348734 18.936812 48.802734 19.007812C48.254734 19.079813 47.869406 19.582859 47.941406 20.130859C47.979406 20.415859 48 20.705 48 21C48 24.86 44.859 28 41 28C37.141 28 34 24.86 34 21C34 17.14 37.141 14 41 14C41.298 14 41.589953 14.025547 41.876953 14.060547C42.426953 14.133547 42.923187 13.741359 42.992188 13.193359C43.061188 12.645359 42.671047 12.144172 42.123047 12.076172C41.702047 12.023172 41.347 12 41 12 z M 45.890625 13.779297C45.6365 13.807422 45.393703 13.931484 45.220703 14.146484C44.874703 14.577484 44.943 15.207734 45.375 15.552734C45.791 15.886734 46.155984 16.248953 46.458984 16.626953C46.656984 16.872953 46.947234 17 47.240234 17C47.460234 17 47.680234 16.928297 47.865234 16.779297C48.295234 16.433297 48.365531 15.804047 48.019531 15.373047C47.624531 14.882047 47.155 14.417188 46.625 13.992188C46.4095 13.819688 46.14475 13.751172 45.890625 13.779297 z M 41 16C38.243 16 36 18.243 36 21C36 23.757 38.243 26 41 26C43.757 26 46 23.757 46 21C46 18.243 43.757 16 41 16 z M 41 18C42.654 18 44 19.346 44 21C44 22.654 42.654 24 41 24C39.346 24 38 22.654 38 21C38 19.346 39.346 18 41 18 z M 41 20 A 1 1 0 0 0 40 21 A 1 1 0 0 0 41 22 A 1 1 0 0 0 42 21 A 1 1 0 0 0 41 20 z M 18.335938 35.322266C17.731813 35.308953 17.124031 35.338656 16.519531 35.410156L4.6503906 36.800781C3.1313906 36.978781 1.99 38.271781 2 39.800781L2 52.439453C2 54.096453 3.343 55.439453 5 55.439453C5.246 55.439453 5.4914687 55.409609 5.7304688 55.349609L12.289062 53.710938C13.972062 53.283938 15.754062 53.497547 17.289062 54.310547L29.880859 60.939453C32.492859 62.305453 35.608703 62.305453 38.220703 60.939453L59.519531 49.939453C61.815531 48.741453 62.707766 45.908328 61.509766 43.611328C61.198766 43.014328 60.762469 42.493078 60.230469 42.080078L60.179688 42.050781C59.045687 41.171781 57.569688 40.865703 56.179688 41.220703L42.740234 44.699219C42.012234 42.538219 39.914625 41.145547 37.640625 41.310547L35.449219 41.470703C34.606219 41.523703 33.764 41.361 33 41L23.589844 36.560547C21.938344 35.782047 20.148312 35.362203 18.335938 35.322266 z M 18.251953 37.320312C19.790953 37.359406 21.311438 37.722375 22.710938 38.390625L32.119141 42.830078C33.207141 43.343078 34.409375 43.567469 35.609375 43.480469L37.800781 43.320312C39.452781 43.198313 40.889719 44.439797 41.011719 46.091797C41.017719 46.167797 41.019531 46.244313 41.019531 46.320312L41.019531 46.730469C41.018531 47.123469 40.787688 47.479625 40.429688 47.640625L37.429688 48.970703C35.212688 49.963703 32.687688 50.016141 30.429688 49.119141L25.429688 47.119141C24.915688 46.915141 24.334859 47.165687 24.130859 47.679688C23.926859 48.193688 24.175453 48.776469 24.689453 48.980469L29.689453 50.980469C32.462453 52.084469 35.564062 52.019781 38.289062 50.800781L41.289062 49.470703C42.351062 48.965703 43.02 47.886937 43 46.710938L56.650391 43.169922C58.059391 42.715922 59.569437 43.489438 60.023438 44.898438C60.443438 46.202438 59.812547 47.612922 58.560547 48.169922L58.550781 48.140625L37.25 59.140625C35.22 60.200625 32.799531 60.200625 30.769531 59.140625L18.179688 52.539062C16.222687 51.508063 13.956547 51.234531 11.810547 51.769531L5.2402344 53.410156C4.7042344 53.543156 4.1622969 53.215688 4.0292969 52.679688C4.0072969 52.591687 3.997 52.501156 4 52.410156L4 39.779297C3.996 39.270297 4.3758594 38.840297 4.8808594 38.779297L16.710938 37.390625C17.224438 37.331375 17.738953 37.307281 18.251953 37.320312 z M 7 40C6.448 40 6 40.448 6 41C6 41.552 6.448 42 7 42L9 42C9.552 42 10 41.552 10 41C10 40.448 9.552 40 9 40L7 40 z M 7 45C6.448 45 6 45.448 6 46C6 46.552 6.448 47 7 47L9 47C9.552 47 10 46.552 10 46C10 45.448 9.552 45 9 45L7 45 z M 7 50C6.448 50 6 50.448 6 51C6 51.552 6.448 52 7 52L9 52C9.552 52 10 51.552 10 51C10 50.448 9.552 50 9 50L7 50 z" fill="#70C100" />
</svg>