<svg xmlns="http://www.w3.org/2000/svg" viewBox="0 0 50 50">
  <path d="M14 2C13.277344 2 12.4375 2.214844 11.84375 2.84375C11.25 3.472656 11 4.378906 11 5.5C11 6.621094 11.234375 7.820313 11.65625 8.84375C11.867188 9.355469 12.117188 9.820313 12.46875 10.21875C12.613281 10.382813 12.800781 10.523438 13 10.65625L13 26L15 26L15 10.65625C15.199219 10.523438 15.386719 10.382813 15.53125 10.21875C15.882813 9.820313 16.132813 9.355469 16.34375 8.84375C16.765625 7.820313 17 6.621094 17 5.5C17 4.378906 16.75 3.472656 16.15625 2.84375C15.5625 2.214844 14.722656 2 14 2 Z M 14 4C14.382813 4 14.558594 4.082031 14.6875 4.21875C14.816406 4.355469 15 4.6875 15 5.5C15 6.3125 14.804688 7.351563 14.5 8.09375C14.347656 8.464844 14.160156 8.761719 14.03125 8.90625C14.011719 8.929688 14.015625 8.921875 14 8.9375C13.984375 8.921875 13.988281 8.929688 13.96875 8.90625C13.839844 8.761719 13.652344 8.464844 13.5 8.09375C13.195313 7.351563 13 6.3125 13 5.5C13 4.6875 13.183594 4.355469 13.3125 4.21875C13.441406 4.082031 13.617188 4 14 4 Z M 31 13L31 18L29 18C28.96875 18 28.9375 18 28.90625 18C28.390625 18.046875 27.996094 18.480469 28 19L28 24.53125C27.867188 24.808594 27.867188 25.128906 28 25.40625L28 26C28 35.347656 30 47.15625 30 47.15625C30.078125 47.648438 30.503906 48.007813 31 48L41 48C41.476563 47.992188 41.878906 47.652344 41.96875 47.1875C41.96875 47.1875 44 36.035156 44 26L44 25.1875C44.027344 25.054688 44.027344 24.914063 44 24.78125L44 19C44 18.449219 43.550781 18 43 18L41 18L41 13 Z M 33 15L39 15L39 18L33 18 Z M 30 20L42 20L42 24L30 24 Z M 30 26L42 26C42 26.65625 41.984375 27.308594 41.96875 27.96875L30.03125 28.03125C30.011719 27.351563 30 26.664063 30 26 Z M 6.8125 27C6.335938 27.089844 5.992188 27.511719 6 28L6 31C6 38.257813 8.03125 47.21875 8.03125 47.21875C8.132813 47.671875 8.535156 47.996094 9 48L19 48C19.464844 47.996094 19.867188 47.671875 19.96875 47.21875C19.96875 47.21875 22 38.257813 22 31L22 28C22 27.449219 21.550781 27 21 27L7 27C6.96875 27 6.9375 27 6.90625 27C6.875 27 6.84375 27 6.8125 27 Z M 8 29L20 29L20 31C20 37.371094 18.4375 44.839844 18.1875 46L9.8125 46C9.5625 44.839844 8 37.371094 8 31 Z M 41.90625 29.96875C41.558594 37.769531 40.335938 44.964844 40.15625 46L31.875 46C31.695313 44.917969 30.464844 37.457031 30.09375 30.03125Z" fill="#70C100" />
</svg>