<svg xmlns="http://www.w3.org/2000/svg" viewBox="0 0 48 48">
  <path d="M28.5 2 A 1.50015 1.50015 0 1 0 28.5 5L29.080078 5 A 1.50015 1.50015 0 0 0 29 5.5C29 7.3259532 28.656311 10.290555 28.128906 11.871094 A 1.50015 1.50015 0 0 0 28.125 11.878906L28.105469 11.941406C28.008669 12.229144 27.843364 12.544936 27.619141 12.900391 A 1.50015 1.50015 0 0 0 27.617188 12.900391C27.068998 13.770245 26.708361 14.726814 26.435547 15.710938L22.271484 13.212891 A 1.50015 1.50015 0 0 0 20.3125 13.583984L18.427734 16.025391C17.139327 15.142234 15.671574 14.5 14 14.5C10.112182 14.5 6.8540014 17.310701 6.1464844 21L5.5 21C4.1364058 21 3 22.136406 3 23.5L3 27.5C3 28.670167 3.9008442 29.530047 5 29.791016L5 39.5C5 43.071938 7.9280619 46 11.5 46L36.5 46C40.071938 46 43 43.071938 43 39.5L43 29.791016C44.099156 29.530047 45 28.670167 45 27.5L45 23.5C45 22.136406 43.863594 21 42.5 21L42 21L42 18.501953C42 16.514502 41.435799 14.572657 40.380859 12.900391C40.156636 12.544936 39.991333 12.229144 39.894531 11.941406L39.892578 11.935547L39.875 11.878906 A 1.50015 1.50015 0 0 0 39.871094 11.871094C39.343732 10.290583 39 7.3259532 39 5.5 A 1.50015 1.50015 0 0 0 38.919922 5L39.5 5 A 1.50015 1.50015 0 1 0 39.5 2L28.5 2 z M 31.919922 5L36.080078 5 A 1.50015 1.50015 0 0 0 36 5.5C36 7.646293 36.294148 10.625485 37.023438 12.814453L37.044922 12.876953 A 1.50015 1.50015 0 0 0 37.046875 12.884766C37.256275 13.511738 37.553247 14.039474 37.84375 14.5C38.59681 15.693733 39 17.081404 39 18.501953L39 21L35.203125 21 A 1.50015 1.50015 0 0 0 34.962891 20.828125L29.158203 17.345703C29.317464 16.343154 29.612994 15.362026 30.15625 14.5C30.446753 14.039474 30.743682 13.511725 30.953125 12.884766 A 1.50015 1.50015 0 0 0 30.955078 12.876953L30.974609 12.820312C31.705158 10.630838 32 7.6480468 32 5.5 A 1.50015 1.50015 0 0 0 31.919922 5 z M 21.873047 16.472656L29.419922 21L18.378906 21L21.873047 16.472656 z M 14 17.5C14.994412 17.5 15.857654 17.861093 16.630859 18.355469L14.589844 21L9.2519531 21C9.8862521 18.968241 11.747943 17.5 14 17.5 z M 6 24L7.2539062 24 A 1.50015 1.50015 0 0 0 7.7402344 24L42 24L42 27L6 27L6 24 z M 8 30L40 30L40 39.5C40 41.450062 38.450062 43 36.5 43L11.5 43C9.5499381 43 8 41.450062 8 39.5L8 30 z M 23.476562 31.304688 A 1.50015 1.50015 0 0 0 22 32.824219L22 36.554688L21.060547 35.615234 A 1.50015 1.50015 0 1 0 18.939453 37.736328L22.439453 41.236328 A 1.50015 1.50015 0 0 0 24.560547 41.236328L28.060547 37.736328 A 1.50015 1.50015 0 1 0 25.939453 35.615234L25 36.554688L25 32.824219 A 1.50015 1.50015 0 0 0 23.476562 31.304688 z" fill="#70C100" />
</svg>