<svg xmlns="http://www.w3.org/2000/svg" viewBox="0 0 48 48">
  <path d="M14.5 6C9.8233445 6 6 9.8233481 6 14.5C6 19.176652 9.8233445 23 14.5 23C19.176656 23 23 19.176652 23 14.5C23 9.8233481 19.176656 6 14.5 6 z M 30.5 7C28.032499 7 26 9.0324991 26 11.5L26 17.5C26 19.967501 28.032499 22 30.5 22L36.5 22C38.967501 22 41 19.967501 41 17.5L41 11.5C41 9.0324991 38.967501 7 36.5 7L30.5 7 z M 14.5 9C17.555336 9 20 11.444666 20 14.5C20 17.555334 17.555336 20 14.5 20C11.444664 20 9 17.555334 9 14.5C9 11.444666 11.444664 9 14.5 9 z M 30.5 10L36.5 10C37.346499 10 38 10.653501 38 11.5L38 17.5C38 18.346499 37.346499 19 36.5 19L30.5 19C29.653501 19 29 18.346499 29 17.5L29 11.5C29 10.653501 29.653501 10 30.5 10 z M 33.492188 24.996094C32.529032 24.992777 31.566359 25.285162 30.75 25.875L26.708984 28.791016C25.075025 29.969055 24.382097 32.079152 24.998047 33.996094L26.523438 38.742188C27.139212 40.658585 28.931978 41.969843 30.945312 41.976562L35.929688 41.992188C37.943002 41.998688 39.74451 40.699155 40.373047 38.787109L41.929688 34.052734C42.558892 32.140126 41.877598 30.024458 40.251953 28.835938L36.230469 25.892578L36.230469 25.894531C35.41769 25.299226 34.455343 24.99941 33.492188 24.996094 z M 14.5 26.0625C13.130223 26.0625 11.761449 26.722757 11.007812 28.042969L6.546875 35.859375C5.0294663 38.51903 6.9738989 42 10.039062 42L18.960938 42C22.026778 42 23.970983 38.519475 22.453125 35.859375L17.994141 28.042969C17.240504 26.722757 15.869777 26.0625 14.5 26.0625 z M 33.482422 27.990234C33.823766 27.991434 34.165764 28.099707 34.458984 28.314453L38.480469 31.255859 A 1.50015 1.50015 0 0 0 38.482422 31.257812C39.067811 31.685475 39.3067 32.426369 39.080078 33.115234 A 1.50015 1.50015 0 0 0 39.078125 33.115234L37.523438 37.849609C37.296177 38.540947 36.665351 38.994836 35.939453 38.992188L30.955078 38.976562C30.229204 38.974463 29.600933 38.515204 29.378906 37.824219L27.855469 33.080078C27.633419 32.38902 27.876809 31.64857 28.464844 31.224609 A 1.50015 1.50015 0 0 0 28.464844 31.222656L32.505859 28.306641C32.7995 28.094479 33.141078 27.989051 33.482422 27.990234 z M 14.5 28.9375C14.831223 28.9375 15.163309 29.134509 15.388672 29.529297L19.847656 37.345703C20.301798 38.141603 19.809097 39 18.960938 39L10.039062 39C9.1909031 39 8.6976149 38.141824 9.1523438 37.345703L13.613281 29.529297C13.838644 29.134509 14.168777 28.9375 14.5 28.9375 z" fill="#70C100" />
</svg>